<svg xmlns="http://www.w3.org/2000/svg" aria-hidden="true" style="position:absolute;width:0;height:0;overflow:hidden"><defs>
<symbol id="logo-onet" viewBox="0 0 77 24"><path d="M50.315,89.332a6.345,6.345,0,1,1,6.4-6.344,6.291,6.291,0,0,1-6.4,6.344m0-9.6a3.258,3.258,0,1,0,3.225,3.258,3.124,3.124,0,0,0-3.225-3.258M66.217,89V82.009a2.187,2.187,0,0,0-2.337-2.422,2.892,2.892,0,0,0-2.6,1.663V89H58.105V77h2.777V78.23a5.009,5.009,0,0,1,3.934-1.586,4.468,4.468,0,0,1,3.25,1.293,5.155,5.155,0,0,1,1.325,3.691V89H66.217Zm23.611,0.21a4.277,4.277,0,0,1-3.139-1.03,4.077,4.077,0,0,1-1-3.022V79.994H83.7V77h1.984V74.2l3.174-.751V77H92v3H88.86v5.2c0,0.47.272,1.069,1.566,1.069,0.568,0,1.542-.119,1.542-0.119v2.816a10.862,10.862,0,0,1-2.14.247M77.4,89.332c-3.895,0-6.615-2.609-6.615-6.345a6.244,6.244,0,1,1,12.486,0,7.048,7.048,0,0,1-.121,1.274l-0.006.031H74.112a3.115,3.115,0,0,0,3.333,2.168,3.351,3.351,0,0,0,2.527-1.023l2.6,1.441a6.119,6.119,0,0,1-5.18,2.453m2.687-7.506a2.864,2.864,0,0,0-2.927-2.334,2.96,2.96,0,0,0-3.095,2.334h6.022Z" style="fill:#1e1e1e" transform="translate(-15 -71)"></path></symbol>
<symbol id="logo-dot" viewBox="0 0 77 24"><path d="M39.117,83A12.059,12.059,0,1,1,27.058,71,12.029,12.029,0,0,1,39.117,83" style="fill:#ffd200" transform="translate(-15 -71)"></path></symbol>
<symbol id="loupe" viewBox="0 0 32 32">
<path d="M31.589 29.677l-7.21-7.217c1.945-2.369 3.106-5.403 3.106-8.705 0-7.589-6.153-13.742-13.742-13.742s-13.742 6.153-13.742 13.742 6.153 13.742 13.742 13.742c3.315 0 6.356-1.175 8.731-3.132l7.21 7.21c0.842 0.77 1.631 0.274 1.905 0 0.548-0.542 0.548-1.357 0-1.899zM2.682 13.755c0-6.108 4.953-11.060 11.060-11.060s11.067 4.953 11.067 11.060-4.953 11.060-11.060 11.060-11.067-4.953-11.067-11.060z" style="fill:#C4C4C4"></path>
</symbol>
<symbol id="google-logo" viewBox="0 0 95 32">
<path fill="#ea4335" style="fill: var(--color1, #ea4335)" d="M40.261 16.41c0 4.442-3.475 7.715-7.739 7.715s-7.739-3.273-7.739-7.715c0-4.473 3.475-7.715 7.739-7.715s7.739 3.242 7.739 7.715zM36.873 16.41c0-2.776-2.014-4.675-4.351-4.675s-4.351 1.899-4.351 4.675c0 2.748 2.014 4.675 4.351 4.675s4.351-1.93 4.351-4.675z"></path>
<path fill="#fbbc05" style="fill: var(--color2, #fbbc05)" d="M56.957 16.41c0 4.442-3.475 7.715-7.739 7.715s-7.739-3.273-7.739-7.715c0-4.47 3.475-7.715 7.739-7.715s7.739 3.242 7.739 7.715zM53.569 16.41c0-2.776-2.014-4.675-4.351-4.675s-4.351 1.899-4.351 4.675c0 2.748 2.014 4.675 4.351 4.675s4.351-1.93 4.351-4.675z"></path>
<path fill="#4285f4" style="fill: var(--color3, #4285f4)" d="M72.957 9.162v13.85c0 5.697-3.36 8.024-7.332 8.024-3.739 0-5.99-2.501-6.838-4.546l2.95-1.228c0.525 1.256 1.812 2.737 3.885 2.737 2.543 0 4.118-1.569 4.118-4.522v-1.11h-0.118c-0.758 0.936-2.219 1.753-4.063 1.753-3.857 0-7.391-3.36-7.391-7.683 0-4.355 3.534-7.743 7.391-7.743 1.84 0 3.301 0.817 4.063 1.725h0.118v-1.256h3.217zM69.979 16.438c0-2.717-1.812-4.703-4.118-4.703-2.337 0-4.296 1.986-4.296 4.703 0 2.689 1.958 4.647 4.296 4.647 2.306 0 4.118-1.958 4.118-4.647z"></path>
<path fill="#34a853" style="fill: var(--color4, #34a853)" d="M78.261 1.043v22.609h-3.304v-22.609h3.304z"></path>
<path fill="#ea4335" style="fill: var(--color1, #ea4335)" d="M91.137 18.95l2.63 1.753c-0.849 1.256-2.894 3.419-6.428 3.419-4.383 0-7.656-3.388-7.656-7.715 0-4.588 3.301-7.715 7.277-7.715 4.003 0 5.962 3.186 6.602 4.908l0.351 0.877-10.313 4.271c0.79 1.548 2.017 2.337 3.739 2.337 1.725 0 2.922-0.849 3.798-2.136zM83.043 16.174l6.894-2.863c-0.379-0.963-1.52-1.635-2.863-1.635-1.722 0-4.118 1.52-4.031 4.497z"></path>
<path fill="#4285f4" style="fill: var(--color3, #4285f4)" d="M12.275 14.403v-3.273h11.030c0.108 0.57 0.163 1.245 0.163 1.976 0 2.456-0.671 5.492-2.835 7.656-2.104 2.191-4.793 3.36-8.355 3.36-6.602 0-12.153-5.377-12.153-11.979s5.551-11.979 12.153-11.979c3.652 0 6.254 1.433 8.209 3.301l-2.31 2.31c-1.402-1.315-3.301-2.337-5.903-2.337-4.821 0-8.591 3.885-8.591 8.706s3.77 8.706 8.591 8.706c3.127 0 4.908-1.256 6.049-2.397 0.925-0.925 1.534-2.247 1.774-4.052l-7.823 0.003z"></path>
</symbol>
</svg>