<svg xmlns="http://www.w3.org/2000/svg" aria-hidden="true" style="position:absolute;width:0;height:0;overflow:hidden"><defs>
<symbol id="logo-onet" viewBox="0 0 77 24"><path d="M50.315,89.332a6.345,6.345,0,1,1,6.4-6.344,6.291,6.291,0,0,1-6.4,6.344m0-9.6a3.258,3.258,0,1,0,3.225,3.258,3.124,3.124,0,0,0-3.225-3.258M66.217,89V82.009a2.187,2.187,0,0,0-2.337-2.422,2.892,2.892,0,0,0-2.6,1.663V89H58.105V77h2.777V78.23a5.009,5.009,0,0,1,3.934-1.586,4.468,4.468,0,0,1,3.25,1.293,5.155,5.155,0,0,1,1.325,3.691V89H66.217Zm23.611,0.21a4.277,4.277,0,0,1-3.139-1.03,4.077,4.077,0,0,1-1-3.022V79.994H83.7V77h1.984V74.2l3.174-.751V77H92v3H88.86v5.2c0,0.47.272,1.069,1.566,1.069,0.568,0,1.542-.119,1.542-0.119v2.816a10.862,10.862,0,0,1-2.14.247M77.4,89.332c-3.895,0-6.615-2.609-6.615-6.345a6.244,6.244,0,1,1,12.486,0,7.048,7.048,0,0,1-.121,1.274l-0.006.031H74.112a3.115,3.115,0,0,0,3.333,2.168,3.351,3.351,0,0,0,2.527-1.023l2.6,1.441a6.119,6.119,0,0,1-5.18,2.453m2.687-7.506a2.864,2.864,0,0,0-2.927-2.334,2.96,2.96,0,0,0-3.095,2.334h6.022Z" style="fill:#1e1e1e" transform="translate(-15 -71)"></path></symbol>
<symbol id="logo-dot" viewBox="0 0 77 24"><path d="M39.117,83A12.059,12.059,0,1,1,27.058,71,12.029,12.029,0,0,1,39.117,83" style="fill:#ffd200" transform="translate(-15 -71)"></path></symbol>
<symbol id="loupe" viewBox="0 0 32 32">
<path d="M31.589 29.677l-7.21-7.217c1.945-2.369 3.106-5.403 3.106-8.705 0-7.589-6.153-13.742-13.742-13.742s-13.742 6.153-13.742 13.742 6.153 13.742 13.742 13.742c3.315 0 6.356-1.175 8.731-3.132l7.21 7.21c0.842 0.77 1.631 0.274 1.905 0 0.548-0.542 0.548-1.357 0-1.899zM2.682 13.755c0-6.108 4.953-11.060 11.060-11.060s11.067 4.953 11.067 11.060-4.953 11.060-11.060 11.060-11.067-4.953-11.067-11.060z" style="fill:#C4C4C4"></path>
</symbol>
<symbol id="google-logo" viewBox="0 0 95 32">
<path fill="#ea4335" style="fill: var(--color1, #ea4335)" d="M40.261 16.41c0 4.442-3.475 7.715-7.739 7.715s-7.739-3.273-7.739-7.715c0-4.473 3.475-7.715 7.739-7.715s7.739 3.242 7.739 7.715zM36.873 16.41c0-2.776-2.014-4.675-4.351-4.675s-4.351 1.899-4.351 4.675c0 2.748 2.014 4.675 4.351 4.675s4.351-1.93 4.351-4.675z"></path>
<path fill="#fbbc05" style="fill: var(--color2, #fbbc05)" d="M56.957 16.41c0 4.442-3.475 7.715-7.739 7.715s-7.739-3.273-7.739-7.715c0-4.47 3.475-7.715 7.739-7.715s7.739 3.242 7.739 7.715zM53.569 16.41c0-2.776-2.014-4.675-4.351-4.675s-4.351 1.899-4.351 4.675c0 2.748 2.014 4.675 4.351 4.675s4.351-1.93 4.351-4.675z"></path>
<path fill="#4285f4" style="fill: var(--color3, #4285f4)" d="M72.957 9.162v13.85c0 5.697-3.36 8.024-7.332 8.024-3.739 0-5.99-2.501-6.838-4.546l2.95-1.228c0.525 1.256 1.812 2.737 3.885 2.737 2.543 0 4.118-1.569 4.118-4.522v-1.11h-0.118c-0.758 0.936-2.219 1.753-4.063 1.753-3.857 0-7.391-3.36-7.391-7.683 0-4.355 3.534-7.743 7.391-7.743 1.84 0 3.301 0.817 4.063 1.725h0.118v-1.256h3.217zM69.979 16.438c0-2.717-1.812-4.703-4.118-4.703-2.337 0-4.296 1.986-4.296 4.703 0 2.689 1.958 4.647 4.296 4.647 2.306 0 4.118-1.958 4.118-4.647z"></path>
<path fill="#34a853" style="fill: var(--color4, #34a853)" d="M78.261 1.043v22.609h-3.304v-22.609h3.304z"></path>
<path fill="#ea4335" style="fill: var(--color1, #ea4335)" d="M91.137 18.95l2.63 1.753c-0.849 1.256-2.894 3.419-6.428 3.419-4.383 0-7.656-3.388-7.656-7.715 0-4.588 3.301-7.715 7.277-7.715 4.003 0 5.962 3.186 6.602 4.908l0.351 0.877-10.313 4.271c0.79 1.548 2.017 2.337 3.739 2.337 1.725 0 2.922-0.849 3.798-2.136zM83.043 16.174l6.894-2.863c-0.379-0.963-1.52-1.635-2.863-1.635-1.722 0-4.118 1.52-4.031 4.497z"></path>
<path fill="#4285f4" style="fill: var(--color3, #4285f4)" d="M12.275 14.403v-3.273h11.030c0.108 0.57 0.163 1.245 0.163 1.976 0 2.456-0.671 5.492-2.835 7.656-2.104 2.191-4.793 3.36-8.355 3.36-6.602 0-12.153-5.377-12.153-11.979s5.551-11.979 12.153-11.979c3.652 0 6.254 1.433 8.209 3.301l-2.31 2.31c-1.402-1.315-3.301-2.337-5.903-2.337-4.821 0-8.591 3.885-8.591 8.706s3.77 8.706 8.591 8.706c3.127 0 4.908-1.256 6.049-2.397 0.925-0.925 1.534-2.247 1.774-4.052l-7.823 0.003z"></path>
</symbol>
<symbol id="heart" viewBox="0 12.235 24.588 26">
    <path d="M22.712 16.176c-1.229-1.294-2.847-1.941-4.659-1.941s-3.494.712-4.788 2.071l-.971.971-.971-.971c-1.294-1.359-2.976-2.071-4.788-2.071a6.619 6.619 0 0 0-4.659 1.941c-2.523 2.653-2.523 6.988.129 9.706l9.835 10.159c.129.129.259.194.453.194s.324-.065.453-.194l9.835-10.159c2.653-2.718 2.653-7.053.129-9.706zm-1.035 8.8-9.383 9.706-9.382-9.706c-2.135-2.2-2.2-5.759-.065-7.894.971-1.035 2.265-1.553 3.688-1.553a5.24 5.24 0 0 1 3.882 1.682l1.423 1.488c.259.259.712.259.906 0l1.423-1.488a5.24 5.24 0 0 1 3.882-1.682c1.423 0 2.718.582 3.688 1.553 2.135 2.135 2.071 5.694-.065 7.894z"></path>
  </symbol>
  <symbol id="pawn" viewBox="-0.033 8.647 15.887 22">
  <path d="m.985 14.831 1.095.602a.49.49 0 0 0 .274.055.575.575 0 0 0 .493-.274c.164-.274.055-.602-.219-.766l-1.095-.602c-.274-.164-.602-.055-.766.219s-.055.602.219.766zm14.831 15.104c-.109-.274-.876-2.572-2.025-3.284-.109-.055-.164-.055-.274-.055H3.119c-.109 0-.164 0-.274.055-1.259.657-1.97 3.01-2.025 3.284-.055.164 0 .328.109.493.055.164.219.219.383.219h14.011c.164 0 .328-.109.438-.219a.536.536 0 0 0 .055-.493m-13.682-.383c.274-.711.711-1.532 1.149-1.861h10.07c.438.328.876 1.149 1.149 1.861H2.134zm.711-7.224c1.149.711 1.149 2.189 1.095 2.244v.602h9.194v-.547c.164-3.831-2.791-6.239-4.104-7.114.766-.055 2.517.274 4.214.821h.109c.821.109 1.259-.164 1.478-.438.657-.766.328-2.08.328-2.244v-.109l-.055-.055c-.657-.985-3.448-3.01-4.104-3.502l-.438-.93-1.697-.274V8.648l-.656.108c-1.861.274-2.736 1.423-3.065 2.025-.493.109-1.478.383-2.244 1.313l-.219-.164c-.219-.164-.602-.164-.766.109-.164.219-.164.602.109.766l.985.766c.109.055.219.109.328.109a.5.5 0 0 0 .438-.219.515.515 0 0 0-.055-.711c.766-.93 1.751-.985 1.806-.985h.383l.109-.274s.383-1.04 1.697-1.478v1.751l2.08.328.328.657.109.055c.876.657 3.229 2.463 3.886 3.284.055.328.109.93-.109 1.149-.109.109-.274.109-.438.055-1.095-.383-4.433-1.368-5.527-.547a.988.988 0 0 0-.383.93v.328l.274.164c.055 0 3.995 2.134 4.159 5.965H5.035c-.109-.711-.438-1.915-1.587-2.627-1.478-.93-1.751-2.08-1.587-4.05.219 0 .438-.164.547-.383.109-.274-.055-.602-.383-.711l-1.313-.383c-.274-.109-.602.055-.711.383-.109.274.055.602.383.711l.383.109c-.274 2.244.055 3.886 2.08 5.144z"></path>
  </symbol>
  <symbol id="adv-promo" viewBox="0.106 2.558 32.823 28">
<path d="M.106 5.558v22h24.942l.005-6.486 1.033-.968 1.992 1.414 1.942-1.611 2.91 1.854V5.558H.106zm31.396 13.591-1.588-1.01-1.9 1.574-2.052-1.455-2.341 2.194v.629h-.005v5.044h-6.307v-5.842h-1.432v5.838H9.423v-5.838H7.991v5.838H1.538V6.991h29.959V19.15z"></path><path d="M3.975 9.57h25.181v1.432H3.975V9.57zm0 3.282h25.181v1.432H3.975v-1.432zm0 3.282h19.544v1.432H3.975v-1.432zm-.064 4.195h1.432v3.732H3.911zm7.977 0h1.432v3.732h-1.432zm7.831 0h1.432v3.732h-1.432z"></path>
</symbol>
<symbol fill="none" stroke="black" viewBox="0.45 0.4 20.8 23.4" id="promo-icon">
<path stroke-linecap="round" stroke-miterlimit="10" stroke-width="1.1" d="M15.757 8.07c-1.194.3-3.535.22-6.511-1.586S4.338 2.42 4.93 1.447c.538-.884 2.966-.413 5.633 1.03"></path><path stroke-linecap="round" stroke-linejoin="round" stroke-width="1.1" d="M14.989 6.956a1.586 1.586 0 1 1 .169 2.392"></path><path stroke-linejoin="round" stroke-width="1.1" d="M8.935 6.355 1 14.29l8.879 8.879L20.667 12.38l-.09-5.364-3.427-3.424-5.364-.091-1.715 1.715"></path><path stroke-linecap="round" stroke-miterlimit="10" stroke-width="1.1" d="m14.05 13.297-7.786 1.432m4.738-2.843a1.1 1.1 0 0 1-1.875-.78 1.1 1.1 0 0 1 .677-1.016 1.1 1.1 0 0 1 1.438.593 1.1 1.1 0 0 1-.24 1.203Zm-.13 5.814a1.105 1.105 0 0 1-1.7-.168 1.105 1.105 0 0 1 1.7-1.395 1.098 1.098 0 0 1 .326.781 1.1 1.1 0 0 1-.326.782Z"></path>
</symbol>
<symbol id="onet-premium" version="1.1" id="paid" xmlns="http://www.w3.org/2000/svg" x="0px" y="0px" viewBox="0 0 105 36" style="enable-background:new 0 0 105 36;height:35px" xml:space="preserve"><radialGradient id="Paid_svg_id" cx="-90.3669" cy="-3.8678" r="3.1739" gradientTransform="matrix(104.9426 0 0 -110.6991 9535.8721 -428.1627)" gradientUnits="userSpaceOnUse"><stop offset="0" style="stop-color:#0578be"></stop><stop offset="1.900000e-02" style="stop-color:#0773ba"></stop><stop offset="0.13" style="stop-color:#1753a2"></stop><stop offset="0.25" style="stop-color:#27348b"></stop><stop offset="0.48" style="stop-color:#1f195b"></stop><stop offset="0.65" style="stop-color:#19083c"></stop><stop offset="1" style="stop-color:#19083c"></stop></radialGradient><path id="gradient" style="fill:url(#Paid_svg_id)" d="M17.8,0h69.5  C97.1,0,105,7.9,105,17.7c0,0.2,0,0.4,0,0.5c0,9.8-7.9,17.7-17.7,17.7l-69.5,0C8,36,0,28,0.1,18.2c0-0.2,0-0.4,0-0.5  C0.1,7.9,8,0,17.8,0z"></path><g id="O_premium" transform="translate(15 10.669)"><g id="Group_1446" transform="translate(17.736 0.046)"><path id="Path_859" style="fill:#ffffff" d="M55.8,4.1c-0.5-0.5-1.2-0.8-2-0.8c-0.9,0-1.8,0.3-2.4,1l-0.2-0.2c-0.2-0.2-0.5-0.4-0.8-0.6    c-0.4-0.1-0.7-0.2-1.1-0.2c-0.9,0-1.8,0.3-2.4,1V3.5h-1.7v7.2h1.9V6.1c0.3-0.6,0.9-1,1.6-1c0.4,0,0.8,0.1,1,0.4s0.4,0.7,0.4,1.1    v4.2H52V6.3c0-0.2,0-0.5-0.1-0.7C52.2,5.2,52.7,5,53.2,5c0.7,0,1.4,0.5,1.4,1.2c0,0.1,0,0.2,0,0.2v4.2h1.9V6.3    C56.7,5.5,56.4,4.7,55.8,4.1z"></path><path id="Path_860" style="fill:#ffffff" d="M39.3,3.5v4.2c-0.1,0.7,0.4,1.4,1.2,1.5c0.1,0,0.2,0,0.2,0c0.7,0,1.3-0.4,1.6-1V3.5h1.9v7.2    h-1.7V10c-0.6,0.7-1.5,1-2.4,1c-0.7,0-1.4-0.3-2-0.8c-0.5-0.6-0.8-1.4-0.8-2.2V3.5H39.3z"></path><path id="Path_861" style="fill:#ffffff" d="M32.1,4.1c-0.5-0.5-1.2-0.8-2-0.8c-0.9,0-1.8,0.3-2.4,1l-0.2-0.2c-0.2-0.2-0.5-0.4-0.8-0.6    c-0.4-0.1-0.7-0.2-1.1-0.2c-0.9,0-1.8,0.3-2.4,1V3.5h-1.7v7.2h1.9V6.1c0.3-0.6,0.9-1,1.6-1c0.4,0,0.8,0.1,1,0.4s0.4,0.7,0.4,1.1    v4.2h1.9V6.3c0-0.2,0-0.5-0.1-0.7C28.5,5.2,29,5,29.5,5C30.3,5,31,5.6,31,6.3c0,0.1,0,0.2,0,0.2v4.2h1.9V6.3    C33,5.5,32.7,4.7,32.1,4.1z"></path><path id="Path_862" style="fill:#ffffff" d="M16.9,11c-2.1,0.1-3.9-1.6-4-3.7s1.6-3.9,3.7-4c0.1,0,0.1,0,0.2,0c2,0,3.7,1.6,3.7,3.7    c0,0.1,0,0.1,0,0.2c0,0.3,0,0.5-0.1,0.8l0,0H15c0.3,0.9,1.1,1.4,2,1.3c0.6,0,1.1-0.2,1.5-0.6L20,9.5C19.3,10.5,18.1,11,16.9,11z    M18.5,6.5C18.4,5.6,17.6,5,16.8,5c-0.9-0.1-1.7,0.5-1.9,1.4L18.5,6.5L18.5,6.5z"></path><path id="Path_863" style="fill:#ffffff" d="M3.9,3.3C3,3.3,2.2,3.7,1.7,4.4V3.5H0v9.6h1.9V10c0.5,0.6,1.2,0.9,2,0.9c0.9,0,1.8-0.4,2.5-1.1    c1.4-1.6,1.4-3.9,0-5.5C5.7,3.7,4.8,3.3,3.9,3.3z M5.5,7.1c0.1,1.1-0.7,2-1.7,2.1c-0.1,0-0.1,0-0.2,0c-0.7,0-1.3-0.4-1.7-1V6.1    c0.4-0.6,1-1,1.7-1c1.1,0,1.9,0.8,2,1.8C5.5,7,5.5,7.1,5.5,7.1L5.5,7.1z"></path><path id="Path_864" style="fill:#ffffff" d="M13.3,3.5c-0.4-0.1-0.8-0.2-1.2-0.2c-0.8,0-1.5,0.5-1.9,1.2v-1H8.3v7.3h1.9V6    c0.3-0.6,0.9-0.9,1.6-1c0.1,0,0.3,0,0.4,0l0,0l0,0C12.5,4.5,12.8,4,13.3,3.5L13.3,3.5L13.3,3.5z"></path><path id="Path_865" style="fill:#ffffff" d="M35.1,0c0.7,0,1.2,0.5,1.2,1.2s-0.5,1.2-1.2,1.2s-1.2-0.5-1.2-1.2S34.5,0,35.1,0L35.1,0z    M34.2,3.5H36v7.2h-1.8V3.5z"></path></g><circle id="Ellipse_2" style="fill:#ffd200" cx="7.4" cy="7.4" r="7.4"></circle></g></symbol>
</svg>
